<svg width="165" height="26" viewBox="0 0 165 26" fill="none" xmlns="http://www.w3.org/2000/svg">
<path d="M58.2904 6.37721H58.0334H51.9816V2.8183H48.2765V6.37446H46.167V9.89763H48.2765V13.6986C48.2765 18.3604 50.8972 20.3296 54.5458 20.3296V16.8092C52.7215 16.8092 51.9816 15.9208 51.9816 13.7013V9.90038H54.365H56.5056H56.5395C57.3585 9.90863 58.0193 10.5495 58.0334 11.347V11.3993V13.0798V20.2498H61.7385V9.90038V9.73261C61.7385 7.87889 60.1938 6.37721 58.2904 6.37721Z" fill="black"/>
<path d="M21.9396 12.9532V20.2499H18.2345V12.9532C18.2345 10.7337 17.3789 9.67761 15.5263 9.67761C13.702 9.67761 12.8209 10.731 12.8209 12.9532V20.2499H9.11869V12.9532C9.11869 10.7337 8.26302 9.67761 6.41047 9.67761C4.58617 9.67761 3.70508 10.731 3.70508 12.9532V20.2499H0V12.9532C0 8.29145 2.76469 6.15445 6.41047 6.15445C8.23478 6.15445 9.91505 6.76502 10.9684 8.06867C12.0218 6.76502 13.7049 6.15445 15.5263 6.15445C19.1749 6.15445 21.9396 8.29145 21.9396 12.9532Z" fill="black"/>
<path d="M36.9774 6.3772V13.6766C36.9774 18.3383 34.3567 20.4753 30.7081 20.4753C27.0624 20.4753 24.4389 18.3383 24.4389 13.6766V6.3772H28.144V13.6766C28.144 15.8961 28.8838 16.9522 30.7081 16.9522C32.5324 16.9522 33.2723 15.8988 33.2723 13.6766V6.3772H36.9774Z" fill="black"/>
<path d="M39.7193 20.2499V0.601562H43.4244V20.2499H39.7193Z" fill="black"/>
<path d="M57.5586 2.43877C57.5586 1.18738 58.5752 0.200012 59.8884 0.200012C61.1733 0.200012 62.1871 1.19013 62.1871 2.43877C62.1871 3.71767 61.1705 4.70779 59.8884 4.70779C58.5724 4.70779 57.5586 3.72042 57.5586 2.43877Z" fill="#EC6309"/>
<path d="M63.7518 13.3135C63.7518 9.34482 67.0276 6.15445 71.1027 6.15445C74.4943 6.15445 77.3155 8.34646 78.1683 11.3443H74.2373C73.6104 10.3459 72.5006 9.68036 71.1309 9.68036C69.0214 9.68036 67.4541 11.2618 67.4541 13.3163C67.4541 15.3708 69.0214 16.9522 71.1309 16.9522C72.4412 16.9522 73.4664 16.3416 74.1215 15.4258H78.1401C77.2279 18.3659 74.435 20.4754 71.1027 20.4754C67.0276 20.4726 63.7518 17.2823 63.7518 13.3135Z" fill="black"/>
<path d="M79.6955 13.3135C79.6955 9.34482 82.9996 6.15445 87.0464 6.15445C91.0932 6.15445 94.369 9.34482 94.369 13.3135V20.2499H90.6639V18.7784C90.2375 19.6943 88.6702 20.4699 87.0464 20.4699C82.9996 20.4726 79.6955 17.2823 79.6955 13.3135ZM90.6921 13.3135C90.6921 11.259 89.1813 9.67761 87.0746 9.67761C84.9651 9.67761 83.4006 11.259 83.4006 13.3135C83.4006 15.368 84.9679 16.9495 87.0746 16.9495C89.1841 16.9495 90.6921 15.3653 90.6921 13.3135Z" fill="black"/>
<path d="M118.808 12.9532V20.2499H115.106V12.9532C115.106 10.7337 114.25 9.67761 112.4 9.67761C110.576 9.67761 109.695 10.731 109.695 12.9532V20.2499H105.99V12.9532C105.99 10.7337 105.134 9.67761 103.284 9.67761C101.46 9.67761 100.579 10.731 100.579 12.9532V20.2499H96.874V12.9532C96.874 8.29145 99.6387 6.15445 103.284 6.15445C105.109 6.15445 106.789 6.76502 107.842 8.06867C108.896 6.76502 110.579 6.15445 112.4 6.15445C116.046 6.15445 118.808 8.29145 118.808 12.9532Z" fill="black"/>
<path d="M128.633 6.15445C132.68 6.15445 135.984 9.34482 135.984 13.3135C135.984 17.2823 132.68 20.4726 128.633 20.4726C127.179 20.4726 126.041 20.1123 125.044 19.4193V25.8027H121.31V13.3163C121.31 9.34482 124.586 6.15445 128.633 6.15445ZM132.279 13.3135C132.279 11.259 130.768 9.67761 128.661 9.67761C126.552 9.67761 124.984 11.259 124.984 13.3135C124.984 15.368 126.552 16.9495 128.661 16.9495C130.771 16.9495 132.279 15.3653 132.279 13.3135Z" fill="black"/>
<path d="M150.533 6.3772V13.6766C150.533 18.3383 147.912 20.4753 144.264 20.4753C140.618 20.4753 137.994 18.3383 137.994 13.6766V6.3772H141.7V13.6766C141.7 15.8961 142.439 16.9522 144.264 16.9522C146.088 16.9522 146.828 15.8988 146.828 13.6766V6.3772H150.533Z" fill="black"/>
<path d="M152.547 15.7559H156.079C156.079 16.6442 157.22 17.2548 158.757 17.2548C160.296 17.2548 161.092 16.6442 161.092 15.9236C161.092 13.6216 152.688 15.8411 152.688 10.346C152.688 7.90368 155.28 6.15723 158.584 6.15723C161.888 6.15723 164.396 7.76616 164.396 10.709H160.863C160.863 9.90317 159.751 9.35035 158.528 9.35035C157.302 9.35035 156.39 9.90592 156.39 10.6265C156.39 12.6232 164.738 10.764 164.794 16.0089C164.823 19.1167 162.145 20.4754 158.669 20.4754C155.484 20.4727 152.547 18.8637 152.547 15.7559Z" fill="black"/>
</svg>
