<?xml version="1.0" standalone="no"?><svg xmlns="http://www.w3.org/2000/svg" viewBox="0 0 1440 320"><path fill="#2b2d42" fill-opacity="1" d="M0,160L26.7,154.7C53.3,149,107,139,160,149.3C213.3,160,267,192,320,213.3C373.3,235,427,245,480,208C533.3,171,587,85,640,69.3C693.3,53,747,107,800,149.3C853.3,192,907,224,960,208C1013.3,192,1067,128,1120,85.3C1173.3,43,1227,21,1280,32C1333.3,43,1387,85,1413,106.7L1440,128L1440,320L1413.3,320C1386.7,320,1333,320,1280,320C1226.7,320,1173,320,1120,320C1066.7,320,1013,320,960,320C906.7,320,853,320,800,320C746.7,320,693,320,640,320C586.7,320,533,320,480,320C426.7,320,373,320,320,320C266.7,320,213,320,160,320C106.7,320,53,320,27,320L0,320Z"></path></svg>